<svg width="191" height="191" xmlns="http://www.w3.org/2000/svg" xmlns:xlink="http://www.w3.org/1999/xlink" xml:space="preserve" overflow="hidden"><g transform="translate(-317 -244)"><path d="M492.083 361.385 492.083 273.844 464.229 273.844 464.229 267.875C466.427 267.875 468.208 266.094 468.208 263.896 468.208 261.698 466.427 259.917 464.229 259.917L456.271 259.917C454.073 259.917 452.292 261.698 452.292 263.896 452.292 266.094 454.073 267.875 456.271 267.875L456.271 273.844 416.479 273.844 416.479 267.875C418.677 267.875 420.458 266.094 420.458 263.896 420.458 261.698 418.677 259.917 416.479 259.917L408.521 259.917C406.323 259.917 404.542 261.698 404.542 263.896 404.542 266.094 406.323 267.875 408.521 267.875L408.521 273.844 368.729 273.844 368.729 267.875C370.927 267.875 372.708 266.094 372.708 263.896 372.708 261.698 370.927 259.917 368.729 259.917L360.771 259.917C358.573 259.917 356.792 261.698 356.792 263.896 356.792 266.094 358.573 267.875 360.771 267.875L360.771 273.844 332.917 273.844 332.917 361.385 337.891 361.385 337.891 369.344 336.896 369.344C334.698 369.344 332.917 371.125 332.917 373.323 332.917 375.521 334.698 377.302 336.896 377.302L358.781 377.302 358.781 419.083 370.719 419.083 370.719 377.302 454.281 377.302 454.281 419.083 466.219 419.083 466.219 377.302 488.104 377.302C490.302 377.302 492.083 375.521 492.083 373.323 492.083 371.125 490.302 369.344 488.104 369.344L487.109 369.344 487.109 361.385ZM433.391 361.385 433.391 369.344 424.676 369.344 432.635 361.385ZM439.359 369.344 439.359 361.385 448.074 361.385 440.115 369.344ZM416.24 369.344 415.484 369.344 415.484 361.385 424.199 361.385ZM409.516 361.385 409.516 369.344 400.801 369.344 408.76 361.385ZM392.365 369.344 391.609 369.344 391.609 361.385 400.324 361.385ZM385.641 361.385 385.641 369.344 376.926 369.344 384.885 361.385ZM368.49 369.344 367.734 369.344 367.734 361.385 376.449 361.385ZM361.766 361.385 361.766 369.344 353.051 369.344 361.01 361.385ZM456.51 361.385 457.266 361.385 457.266 369.344 448.551 369.344ZM463.234 369.344 463.234 361.385 471.949 361.385 463.99 369.344ZM340.875 281.802 484.125 281.802 484.125 353.427 340.875 353.427ZM343.859 361.385 352.574 361.385 344.615 369.344 343.859 369.344ZM481.141 369.344 472.426 369.344 480.385 361.385 481.141 361.385Z"/></g></svg>